<?xml version="1.0" encoding="UTF-8"?><svg id="a" xmlns="http://www.w3.org/2000/svg" viewBox="0 0 57.14 94.3"><defs><style>.b{fill:#fff;fill-rule:evenodd;}.c{fill:#9bb7d0;}</style></defs><ellipse class="c" cx="30.33" cy="14.29" rx="14.47" ry="14.29"/><path class="b" d="M55.83,31.73c2.76-9.75,1-17.52-3.84-23.94-3.23,21.09-11.54,25.26-30.41,32.73C3.17,47.81-6.06,62.63,4.36,81.4c9.47,17.05,32.9,15.67,44.52,4.73,12.66-11.92,8.56-32.6-.94-38.56-4.05,2.59-9.55,5.04-15.2,7.48,17.16,8.39,7.14,26.52-5.29,24.84-10.95-1.48-13.91-8.75-11.44-17.43-2.05,1.23-4.18,3.77-6.37,7.13,2.99-9.18,10.96-13.58,20.05-16.86,3.06-1,11.77-4.74,17.1-8.56,4.33-3.11,7.27-8.11,9.04-12.45Z"/></svg>