<?xml version="1.0" encoding="utf-8"?>
<!-- Generator: Adobe Illustrator 26.5.3, SVG Export Plug-In . SVG Version: 6.00 Build 0)  -->
<svg version="1.1" id="Layer_1" xmlns="http://www.w3.org/2000/svg" xmlns:xlink="http://www.w3.org/1999/xlink" x="0px" y="0px"
	 viewBox="0 0 70 70" style="enable-background:new 0 0 70 70;" xml:space="preserve">
<style type="text/css">
	.st0{fill:#ED1F47;}
	.st1{fill:#002EDC;}
	.st2{fill:#ED1F48;}
</style>
<g>
	<path class="st2" d="M22.39,48.79c2.57-0.05,3.64-3.39,1.65-5.04c-0.26-0.22-0.53-0.44-0.8-0.66c-9.99-8.25-12.96-6.29-22.99-2.75
		c-0.36,0.13-0.32,0.65,0.05,0.73c2.99,0.64,5.91,2.61,9.66,6.67l11.41,1.02C21.71,48.79,22.05,48.8,22.39,48.79"/>
	<path class="st2" d="M69.36,7.69l-38.3,39.05c-2.8,2.86-6.7,4.3-10.65,3.95l-9.16-0.82l9.52,9.37c4.98,4.89,13.09,4,16.93-1.86
		L69.93,8.17C70.18,7.79,69.68,7.37,69.36,7.69"/>
</g>
</svg>
